<svg xmlns="http://www.w3.org/2000/svg" width="1024" height="1024" viewBox="0 0 1024 1024"><defs><linearGradient id="kachelSky" x1="0.25" y1="0" x2="0.75" y2="1"><stop offset="0" stop-color="#171a34"/><stop offset="0.62" stop-color="#0b4e86"/><stop offset="1" stop-color="#0075b3"/></linearGradient></defs><rect width="1024" height="1024" fill="url(#kachelSky)"/><g transform="translate(512 512) scale(0.805) translate(-512 -512)"><g fill="none" stroke="#68e5de" stroke-width="40" stroke-linecap="round" stroke-linejoin="round"><path d="M318 322 C268 322 258 344 258 392 L258 468 C258 496 246 512 214 512 C246 512 258 528 258 556 L258 632 C258 680 268 702 318 702"/><path d="M706 322 C756 322 766 344 766 392 L766 468 C766 496 778 512 810 512 C778 512 766 528 766 556 L766 632 C766 680 756 702 706 702"/></g><path fill="#ffffff" transform="translate(372 345) scale(1.5)" d="M187.334 107.376V119.224C187.334 126.76 184.924 129.872 173.879 129.872H48.3184C49.5287 171.855 58.9666 181.404 97.4403 181.404H165.143C168.021 181.008 170.676 183.032 171.072 185.91C171.133 186.378 171.133 186.855 171.072 187.333V211.844C171.469 215.149 169.109 218.149 165.804 218.546C165.713 218.556 165.631 218.566 165.54 218.576C142.036 221.749 118.34 223.193 94.6231 222.899C17.3808 223 0 200.799 0 111.708C0 22.2108 17.3808 0.00940304 94.6231 0.00940304C169.16 -0.000767118 186.531 21.3972 187.334 107.376ZM48.3184 95.4258H139.026C138.619 52.64 129.883 41.585 94.6231 41.585C57.858 41.585 48.715 52.64 48.3184 95.4258Z"/></g></svg>
